<svg width="20" height="20" viewBox="0 0 24 24" fill="none" xmlns="http://www.w3.org/2000/svg">
  <path d="M22.56 12.25C22.56 11.47 22.49 10.72 22.36 10H12V14.26H17.92C17.66 15.63 16.88 16.79 15.76 17.58V20.34H19.28C21.36 18.42 22.56 15.6 22.56 12.25Z" fill="#4285F4"/>
  <path d="M12 23C14.97 23 17.46 21.92 19.28 20.34L15.76 17.58C14.78 18.24 13.48 18.63 12 18.63C9.13 18.63 6.68 16.67 5.84 14.07H2.18V16.91C4 20.53 7.71 23 12 23Z" fill="#34A853"/>
  <path d="M5.84 14.07C5.62 13.41 5.5 12.7 5.5 12C5.5 11.3 5.62 10.59 5.84 9.93V7.09H2.18C1.43 8.58 1 10.25 1 12C1 13.75 1.43 15.42 2.18 16.91L5.84 14.07Z" fill="#FBBC05"/>
  <path d="M12 5.38C13.62 5.38 15.06 5.94 16.21 7.02L19.36 3.87C17.45 2.09 14.97 1 12 1C7.71 1 4 3.47 2.18 7.09L5.84 9.93C6.68 7.33 9.13 5.38 12 5.38Z" fill="#EA4335"/>
</svg>
